<mxfile host="app.diagrams.net" agent="Mozilla/5.0 (X11; Ubuntu; Linux x86_64; rv:131.0) Gecko/20100101 Firefox/131.0" version="24.7.17">
  <diagram name="Page-1" id="alDKycs5oU3pcxEAZStF">
    <mxGraphModel dx="3120" dy="893" grid="1" gridSize="10" guides="1" tooltips="1" connect="1" arrows="1" fold="1" page="1" pageScale="1" pageWidth="850" pageHeight="1100" math="0" shadow="0">
      <root>
        <mxCell id="0" />
        <mxCell id="1" parent="0" />
        <mxCell id="bv6qjs0hTHORihQvAECl-1" value="" style="rounded=0;whiteSpace=wrap;html=1;strokeColor=#FF3333;dashed=2;fillColor=none;strokeWidth=3;" parent="1" vertex="1">
          <mxGeometry x="-1602" y="120" width="1280" height="773.5" as="geometry" />
        </mxCell>
        <mxCell id="4XTPGP9FqWyqA6gIsmBm-15" value="" style="rounded=0;whiteSpace=wrap;html=1;" parent="1" vertex="1">
          <mxGeometry x="-600" y="132" width="247.5" height="560" as="geometry" />
        </mxCell>
        <mxCell id="bv6qjs0hTHORihQvAECl-8" value="" style="sketch=0;points=[[0,0,0,0,0],[0,0.25,0,0,0],[0,0.5,0,0,0],[0,0.75,0,0,0],[0,1,0,0,0],[0.25,0,0,0,0],[0.25,1,0,0,0],[0.5,0,0,0,0],[0.5,1,0,0,0],[0.75,0,0,0,0],[0.75,1,0,0,0],[1,0,0,0,0],[1,0.25,0,0,0],[1,0.5,0,0,0],[1,0.75,0,0,0],[1,1,0,0,0]];outlineConnect=0;fontColor=#232F3E;gradientColor=#945DF2;gradientDirection=north;fillColor=#5A30B5;strokeColor=#ffffff;dashed=0;verticalLabelPosition=top;verticalAlign=top;align=center;html=1;fontSize=12;fontStyle=0;aspect=fixed;shape=mxgraph.aws4.resourceIcon;resIcon=mxgraph.aws4.api_gateway;" parent="1" vertex="1">
          <mxGeometry x="-1280" y="370" width="110" height="110" as="geometry" />
        </mxCell>
        <mxCell id="bv6qjs0hTHORihQvAECl-11" value="" style="verticalLabelPosition=bottom;html=1;verticalAlign=top;align=center;strokeColor=none;fillColor=#6666FF;shape=mxgraph.azure.computer;pointerEvents=1;" parent="1" vertex="1">
          <mxGeometry x="-517" y="359" width="97" height="86" as="geometry" />
        </mxCell>
        <mxCell id="bv6qjs0hTHORihQvAECl-20" value="" style="shape=image;html=1;verticalAlign=top;verticalLabelPosition=bottom;labelBackgroundColor=#ffffff;imageAspect=0;aspect=fixed;image=https://cdn0.iconfinder.com/data/icons/business-startup-10/50/60-128.png" parent="1" vertex="1">
          <mxGeometry x="-497" y="365" width="58" height="58" as="geometry" />
        </mxCell>
        <mxCell id="bv6qjs0hTHORihQvAECl-27" value="&lt;div&gt;&lt;font style=&quot;font-size: 14px;&quot;&gt;&lt;b&gt;&lt;font color=&quot;#ff3333&quot;&gt;MNRT&lt;/font&gt;&lt;/b&gt;&lt;/font&gt;&lt;/div&gt;&lt;div&gt;&lt;font size=&quot;3&quot; color=&quot;#ff3333&quot;&gt;&lt;b&gt;DATAWARE HOUSE&lt;/b&gt;&lt;br&gt;&lt;/font&gt;&lt;/div&gt;" style="shape=datastore;whiteSpace=wrap;html=1;strokeWidth=3;strokeColor=#6666FF;" parent="1" vertex="1">
          <mxGeometry x="-815" y="710" width="121" height="160" as="geometry" />
        </mxCell>
        <mxCell id="bv6qjs0hTHORihQvAECl-29" value="&lt;div&gt;&lt;b&gt;&lt;font style=&quot;font-size: 18px;&quot; color=&quot;#ff3333&quot;&gt;MNRT Institutions&lt;br&gt;&lt;/font&gt;&lt;/b&gt;&lt;/div&gt;&lt;div align=&quot;left&quot;&gt;&lt;b&gt;&lt;font style=&quot;font-size: 14px;&quot; color=&quot;#00cc66&quot;&gt;&amp;nbsp;(Application Systems)&lt;br&gt;&lt;/font&gt;&lt;/b&gt;&lt;/div&gt;" style="sketch=0;pointerEvents=1;shadow=0;dashed=0;html=1;strokeColor=none;labelPosition=center;verticalLabelPosition=bottom;verticalAlign=top;align=center;fillColor=#515151;shape=mxgraph.mscae.system_center.primary_site" parent="1" vertex="1">
          <mxGeometry x="-1462" y="162" width="38" height="50" as="geometry" />
        </mxCell>
        <mxCell id="1rtqqvMdxupV1CVTJnT_-3" value="&lt;b&gt;&lt;font style=&quot;font-size: 24px;&quot;&gt;Faru Gateway&lt;/font&gt;&lt;/b&gt;" style="text;html=1;align=center;verticalAlign=middle;resizable=0;points=[];autosize=1;strokeColor=none;fillColor=none;color=ffffff" parent="1" vertex="1">
          <mxGeometry x="-1315" y="341" width="180" height="40" as="geometry" />
        </mxCell>
        <mxCell id="1rtqqvMdxupV1CVTJnT_-4" value="" style="sketch=0;points=[[0,0,0,0,0],[0,0.25,0,0,0],[0,0.5,0,0,0],[0,0.75,0,0,0],[0,1,0,0,0],[0.25,0,0,0,0],[0.25,1,0,0,0],[0.5,0,0,0,0],[0.5,1,0,0,0],[0.75,0,0,0,0],[0.75,1,0,0,0],[1,0,0,0,0],[1,0.25,0,0,0],[1,0.5,0,0,0],[1,0.75,0,0,0],[1,1,0,0,0]];outlineConnect=0;fontColor=#232F3E;gradientColor=#945DF2;gradientDirection=north;fillColor=#5A30B5;strokeColor=#ffffff;dashed=0;verticalLabelPosition=top;verticalAlign=top;align=center;html=1;fontSize=12;fontStyle=0;aspect=fixed;shape=mxgraph.aws4.resourceIcon;resIcon=mxgraph.aws4.api_gateway;" parent="1" vertex="1">
          <mxGeometry x="-1260" y="640" width="80" height="80" as="geometry" />
        </mxCell>
        <mxCell id="1rtqqvMdxupV1CVTJnT_-5" value="&lt;font style=&quot;font-size: 24px;&quot;&gt;&lt;b&gt;Gov-ESB&lt;/b&gt;&lt;/font&gt;" style="text;html=1;align=center;verticalAlign=middle;resizable=0;points=[];autosize=1;strokeColor=none;fillColor=none;color=ffffff" parent="1" vertex="1">
          <mxGeometry x="-1285" y="716" width="130" height="40" as="geometry" />
        </mxCell>
        <mxCell id="1rtqqvMdxupV1CVTJnT_-10" value="&lt;div&gt;&lt;b&gt;&lt;font style=&quot;font-size: 18px;&quot; color=&quot;#ff3333&quot;&gt;PRIVATE SECTORS&lt;/font&gt;&lt;/b&gt;&lt;/div&gt;&lt;div&gt;&lt;b&gt;&lt;font style=&quot;font-size: 14px;&quot; color=&quot;#00cc66&quot;&gt;&amp;nbsp;(Banks, MNOs, VISA etc)&lt;br&gt;&lt;/font&gt;&lt;/b&gt;&lt;/div&gt;" style="sketch=0;pointerEvents=1;shadow=0;dashed=0;html=1;strokeColor=none;labelPosition=center;verticalLabelPosition=bottom;verticalAlign=top;align=center;fillColor=#515151;shape=mxgraph.mscae.system_center.primary_site" parent="1" vertex="1">
          <mxGeometry x="-1450" y="780" width="38" height="50" as="geometry" />
        </mxCell>
        <mxCell id="1rtqqvMdxupV1CVTJnT_-15" value="&lt;div&gt;&lt;font style=&quot;font-size: 18px;&quot; color=&quot;#ff3333&quot;&gt;&lt;b&gt;MNRT HQ&lt;/b&gt;&lt;/font&gt;&lt;font size=&quot;3&quot; color=&quot;#ff3333&quot;&gt;&lt;b&gt;&lt;br&gt;&lt;/b&gt;&lt;/font&gt;&lt;/div&gt;&lt;div&gt;&lt;font style=&quot;font-size: 14px;&quot; color=&quot;#00cc66&quot;&gt;&lt;b&gt;&amp;nbsp;&amp;nbsp;&amp;nbsp;&amp;nbsp;&amp;nbsp;&amp;nbsp;&amp;nbsp;&amp;nbsp;&amp;nbsp;&amp;nbsp;&amp;nbsp;&amp;nbsp; -MNRT Portal&lt;br&gt;&lt;/b&gt;&lt;/font&gt;&lt;/div&gt;&lt;div&gt;&lt;font style=&quot;font-size: 14px;&quot; color=&quot;#00cc66&quot;&gt;&lt;b&gt;&amp;nbsp;-AserT&lt;/b&gt;&lt;/font&gt;&lt;font style=&quot;font-size: 14px;&quot; color=&quot;#00cc66&quot;&gt;&lt;b&gt;&lt;br&gt;&lt;/b&gt;&lt;/font&gt;&lt;/div&gt;&lt;div&gt;&lt;font style=&quot;font-size: 14px;&quot; color=&quot;#00cc66&quot;&gt;&lt;b&gt;&amp;nbsp; -TRIMS&lt;br&gt;&lt;/b&gt;&lt;/font&gt;&lt;/div&gt;&lt;div&gt;&lt;font style=&quot;font-size: 14px;&quot; color=&quot;#00cc66&quot;&gt;&lt;b&gt;&amp;nbsp;&amp;nbsp; -WFCIS&lt;/b&gt;&lt;/font&gt;&lt;/div&gt;&lt;div&gt;&lt;font style=&quot;font-size: 14px;&quot; color=&quot;#00cc66&quot;&gt;&lt;b&gt;&amp;nbsp;&amp;nbsp;&amp;nbsp;&amp;nbsp;&amp;nbsp;&amp;nbsp;&amp;nbsp;&amp;nbsp;&amp;nbsp;&amp;nbsp;&amp;nbsp;&amp;nbsp;&amp;nbsp;&amp;nbsp;&amp;nbsp;&amp;nbsp;&amp;nbsp; -Websites/Blogs&lt;/b&gt;&lt;/font&gt;&lt;/div&gt;" style="sketch=0;pointerEvents=1;shadow=0;dashed=0;html=1;strokeColor=none;labelPosition=center;verticalLabelPosition=bottom;verticalAlign=top;align=center;fillColor=#515151;shape=mxgraph.mscae.system_center.primary_site" parent="1" vertex="1">
          <mxGeometry x="-1152" y="161" width="38" height="50" as="geometry" />
        </mxCell>
        <mxCell id="1rtqqvMdxupV1CVTJnT_-16" value="" style="endArrow=classic;startArrow=classic;html=1;rounded=0;shadow=0;strokeColor=default;strokeWidth=2;align=center;verticalAlign=middle;fontFamily=Helvetica;fontSize=11;fontColor=default;labelBackgroundColor=default;fillColor=#515151;exitX=0.263;exitY=0.08;exitDx=0;exitDy=0;exitPerimeter=0;entryX=0.009;entryY=0.627;entryDx=0;entryDy=0;entryPerimeter=0;" parent="1" target="bv6qjs0hTHORihQvAECl-8" edge="1">
          <mxGeometry width="50" height="50" relative="1" as="geometry">
            <mxPoint x="-1434.996" y="640" as="sourcePoint" />
            <mxPoint x="-1274.99" y="395.5" as="targetPoint" />
            <Array as="points">
              <mxPoint x="-1434.99" y="613" />
              <mxPoint x="-1435" y="440" />
            </Array>
          </mxGeometry>
        </mxCell>
        <mxCell id="1rtqqvMdxupV1CVTJnT_-18" value="" style="endArrow=classic;startArrow=classic;html=1;rounded=0;shadow=0;strokeColor=default;strokeWidth=2;align=center;verticalAlign=middle;fontFamily=Helvetica;fontSize=11;fontColor=default;labelBackgroundColor=default;fillColor=#515151;exitX=0.5;exitY=0;exitDx=0;exitDy=0;exitPerimeter=0;" parent="1" source="1rtqqvMdxupV1CVTJnT_-4" edge="1">
          <mxGeometry width="50" height="50" relative="1" as="geometry">
            <mxPoint x="-1220" y="603" as="sourcePoint" />
            <mxPoint x="-1220" y="480" as="targetPoint" />
            <Array as="points">
              <mxPoint x="-1220" y="503" />
            </Array>
          </mxGeometry>
        </mxCell>
        <mxCell id="1rtqqvMdxupV1CVTJnT_-19" style="edgeStyle=none;rounded=0;orthogonalLoop=1;jettySize=auto;html=1;entryX=0.5;entryY=0;entryDx=0;entryDy=0;entryPerimeter=0;shadow=0;strokeColor=default;strokeWidth=2;align=center;verticalAlign=middle;fontFamily=Helvetica;fontSize=11;fontColor=default;labelBackgroundColor=default;startArrow=classic;endArrow=classic;fillColor=#515151;" parent="1" source="1rtqqvMdxupV1CVTJnT_-4" target="1rtqqvMdxupV1CVTJnT_-4" edge="1">
          <mxGeometry relative="1" as="geometry" />
        </mxCell>
        <mxCell id="1rtqqvMdxupV1CVTJnT_-20" value="" style="endArrow=classic;startArrow=classic;html=1;rounded=0;shadow=0;strokeColor=default;strokeWidth=2;align=center;verticalAlign=middle;fontFamily=Helvetica;fontSize=11;fontColor=default;labelBackgroundColor=default;fillColor=#515151;entryX=0;entryY=0.5;entryDx=0;entryDy=0;entryPerimeter=0;exitX=0;exitY=0.25;exitDx=0;exitDy=0;exitPerimeter=0;" parent="1" source="bv6qjs0hTHORihQvAECl-8" target="bv6qjs0hTHORihQvAECl-29" edge="1">
          <mxGeometry width="50" height="50" relative="1" as="geometry">
            <mxPoint x="-1276" y="530" as="sourcePoint" />
            <mxPoint x="-1363" y="186" as="targetPoint" />
            <Array as="points">
              <mxPoint x="-1540" y="398" />
              <mxPoint x="-1540" y="187" />
            </Array>
          </mxGeometry>
        </mxCell>
        <mxCell id="1rtqqvMdxupV1CVTJnT_-21" value="" style="endArrow=classic;startArrow=classic;html=1;rounded=0;shadow=0;strokeColor=default;strokeWidth=2;align=center;verticalAlign=middle;fontFamily=Helvetica;fontSize=11;fontColor=default;labelBackgroundColor=default;fillColor=#515151;exitX=1;exitY=0.25;exitDx=0;exitDy=0;exitPerimeter=0;entryX=0.605;entryY=0.46;entryDx=0;entryDy=0;entryPerimeter=0;" parent="1" source="bv6qjs0hTHORihQvAECl-8" target="1rtqqvMdxupV1CVTJnT_-15" edge="1">
          <mxGeometry width="50" height="50" relative="1" as="geometry">
            <mxPoint x="-1220" y="402" as="sourcePoint" />
            <mxPoint x="-1220" y="242" as="targetPoint" />
            <Array as="points">
              <mxPoint x="-960" y="398" />
              <mxPoint x="-960" y="290" />
              <mxPoint x="-960" y="184" />
            </Array>
          </mxGeometry>
        </mxCell>
        <mxCell id="1rtqqvMdxupV1CVTJnT_-25" value="" style="verticalLabelPosition=bottom;verticalAlign=top;html=1;shadow=0;dashed=0;strokeWidth=1;shape=mxgraph.android.phone2;strokeColor=#c0c0c0;fontFamily=Helvetica;fontSize=11;fontColor=default;labelBackgroundColor=default;fillColor=#6666FF;" parent="1" vertex="1">
          <mxGeometry x="-490.5" y="501.5" width="61" height="127" as="geometry" />
        </mxCell>
        <mxCell id="1rtqqvMdxupV1CVTJnT_-26" value="&lt;font style=&quot;font-size: 14px;&quot; color=&quot;#ff3333&quot;&gt;&lt;b&gt;Reporting Apps&lt;br&gt;&lt;/b&gt;&lt;/font&gt;" style="text;html=1;align=center;verticalAlign=middle;whiteSpace=wrap;rounded=0;fontFamily=Helvetica;fontSize=11;fontColor=default;labelBackgroundColor=default;" parent="1" vertex="1">
          <mxGeometry x="-517" y="628.5" width="144.5" height="30" as="geometry" />
        </mxCell>
        <mxCell id="1rtqqvMdxupV1CVTJnT_-27" value="&lt;div&gt;&lt;b&gt;&lt;font style=&quot;font-size: 36px;&quot;&gt;MNRT INTEGRATION AND REPORTING ROADMAP&lt;/font&gt;&lt;/b&gt;&lt;/div&gt;&lt;div&gt;&lt;font style=&quot;font-size: 24px;&quot;&gt;&lt;b&gt;&lt;font&gt;&amp;nbsp;CONCEPTUAL DIAGRAM &lt;/font&gt;&lt;/b&gt;&lt;/font&gt;&lt;/div&gt;" style="text;html=1;align=center;verticalAlign=middle;whiteSpace=wrap;rounded=0;fontFamily=Helvetica;fontSize=11;fontColor=default;labelBackgroundColor=default;" parent="1" vertex="1">
          <mxGeometry x="-1580" y="50" width="1270" height="60" as="geometry" />
        </mxCell>
        <mxCell id="4XTPGP9FqWyqA6gIsmBm-3" value="&lt;b&gt;&lt;font style=&quot;font-size: 14px;&quot;&gt;Conservation Data&lt;/font&gt;&lt;/b&gt;" style="text;html=1;align=center;verticalAlign=middle;whiteSpace=wrap;rounded=0;" parent="1" vertex="1">
          <mxGeometry x="-1040" y="408" width="130" height="30" as="geometry" />
        </mxCell>
        <mxCell id="4XTPGP9FqWyqA6gIsmBm-4" value="&lt;font style=&quot;font-size: 14px;&quot;&gt;&lt;b&gt;Tourism Data&lt;/b&gt;&lt;/font&gt;" style="text;html=1;align=center;verticalAlign=middle;whiteSpace=wrap;rounded=0;" parent="1" vertex="1">
          <mxGeometry x="-1050" y="448" width="130" height="30" as="geometry" />
        </mxCell>
        <mxCell id="4XTPGP9FqWyqA6gIsmBm-5" value="&lt;div&gt;&lt;b&gt;&lt;font style=&quot;font-size: 18px;&quot; color=&quot;#ff3333&quot;&gt;OTHER GOVERNMENT&lt;/font&gt;&lt;/b&gt;&lt;/div&gt;&lt;div&gt;&lt;b&gt;&lt;font style=&quot;font-size: 18px;&quot; color=&quot;#ff3333&quot;&gt;INSTITUTIONS&lt;br&gt;&lt;/font&gt;&lt;/b&gt;&lt;/div&gt;&lt;div&gt;&lt;b&gt;&lt;font style=&quot;font-size: 14px;&quot; color=&quot;#00cc66&quot;&gt;&amp;nbsp;(NIDA, TRA, IMMIGRATION, BRELA etc)&lt;br&gt;&lt;/font&gt;&lt;/b&gt;&lt;/div&gt;" style="sketch=0;pointerEvents=1;shadow=0;dashed=0;html=1;strokeColor=none;labelPosition=center;verticalLabelPosition=bottom;verticalAlign=top;align=center;fillColor=#515151;shape=mxgraph.mscae.system_center.primary_site" parent="1" vertex="1">
          <mxGeometry x="-1011" y="770" width="38" height="50" as="geometry" />
        </mxCell>
        <mxCell id="4XTPGP9FqWyqA6gIsmBm-8" value="" style="endArrow=classic;startArrow=classic;html=1;rounded=0;shadow=0;strokeColor=default;strokeWidth=2;align=center;verticalAlign=middle;fontFamily=Helvetica;fontSize=11;fontColor=default;labelBackgroundColor=default;fillColor=#515151;entryX=1;entryY=0.5;entryDx=0;entryDy=0;entryPerimeter=0;exitX=0.316;exitY=0.08;exitDx=0;exitDy=0;exitPerimeter=0;" parent="1" target="1rtqqvMdxupV1CVTJnT_-4" edge="1" source="4XTPGP9FqWyqA6gIsmBm-5">
          <mxGeometry width="50" height="50" relative="1" as="geometry">
            <mxPoint x="-1000" y="695" as="sourcePoint" />
            <mxPoint x="-958" y="561" as="targetPoint" />
            <Array as="points">
              <mxPoint x="-1000" y="680" />
            </Array>
          </mxGeometry>
        </mxCell>
        <mxCell id="4XTPGP9FqWyqA6gIsmBm-12" value="" style="outlineConnect=0;dashed=0;verticalLabelPosition=bottom;verticalAlign=top;align=center;html=1;shape=mxgraph.aws3.fire_tv;fillColor=#6666FF;gradientColor=none;" parent="1" vertex="1">
          <mxGeometry x="-552" y="186" width="170" height="100" as="geometry" />
        </mxCell>
        <mxCell id="4XTPGP9FqWyqA6gIsmBm-13" value="&lt;div&gt;&lt;font style=&quot;font-size: 14px;&quot; color=&quot;#ff3333&quot;&gt;&lt;b&gt;Visualization Tools&lt;/b&gt;&lt;/font&gt;&lt;/div&gt;&lt;b&gt;&lt;font style=&quot;font-size: 14px;&quot; color=&quot;#00cc66&quot;&gt;(Operation Control Room&lt;br&gt;&lt;/font&gt;&lt;/b&gt;" style="text;html=1;align=center;verticalAlign=middle;whiteSpace=wrap;rounded=0;fontFamily=Helvetica;fontSize=11;fontColor=default;labelBackgroundColor=default;" parent="1" vertex="1">
          <mxGeometry x="-540.25" y="304" width="144.5" height="30" as="geometry" />
        </mxCell>
        <mxCell id="4XTPGP9FqWyqA6gIsmBm-14" value="&lt;font color=&quot;#ff3333&quot; style=&quot;font-size: 14px;&quot;&gt;&lt;b&gt;MNRT BI Dashboard&lt;br&gt;&lt;/b&gt;&lt;/font&gt;" style="text;html=1;align=center;verticalAlign=middle;whiteSpace=wrap;rounded=0;fontFamily=Helvetica;fontSize=11;fontColor=default;labelBackgroundColor=default;" parent="1" vertex="1">
          <mxGeometry x="-530.25" y="447" width="144.5" height="30" as="geometry" />
        </mxCell>
        <mxCell id="4XTPGP9FqWyqA6gIsmBm-16" value="&lt;b&gt;&lt;font style=&quot;font-size: 24px;&quot; color=&quot;#ff3333&quot;&gt;REPORTING TOOL&lt;/font&gt;&lt;font size=&quot;3&quot; color=&quot;#ff3333&quot;&gt;&lt;br&gt;&lt;/font&gt;&lt;/b&gt;" style="text;html=1;align=center;verticalAlign=middle;whiteSpace=wrap;rounded=0;fontFamily=Helvetica;fontSize=11;fontColor=default;labelBackgroundColor=default;" parent="1" vertex="1">
          <mxGeometry x="-590" y="140" width="220" height="30" as="geometry" />
        </mxCell>
        <mxCell id="4XTPGP9FqWyqA6gIsmBm-18" value="" style="shape=flexArrow;endArrow=classic;html=1;rounded=0;entryX=0.008;entryY=0.55;entryDx=0;entryDy=0;entryPerimeter=0;fillColor=#515151;" parent="1" target="4XTPGP9FqWyqA6gIsmBm-15" edge="1">
          <mxGeometry width="50" height="50" relative="1" as="geometry">
            <mxPoint x="-1170" y="440" as="sourcePoint" />
            <mxPoint x="-640" y="430" as="targetPoint" />
          </mxGeometry>
        </mxCell>
        <mxCell id="wswhTcmAmgkBsK6IhGsY-4" value="" style="sketch=0;points=[[0,0,0,0,0],[0,0.25,0,0,0],[0,0.5,0,0,0],[0,0.75,0,0,0],[0,1,0,0,0],[0.25,0,0,0,0],[0.25,1,0,0,0],[0.5,0,0,0,0],[0.5,1,0,0,0],[0.75,0,0,0,0],[0.75,1,0,0,0],[1,0,0,0,0],[1,0.25,0,0,0],[1,0.5,0,0,0],[1,0.75,0,0,0],[1,1,0,0,0]];outlineConnect=0;fontColor=#232F3E;gradientColor=#945DF2;gradientDirection=north;fillColor=#5A30B5;strokeColor=#ffffff;dashed=0;verticalLabelPosition=top;verticalAlign=top;align=center;html=1;fontSize=12;fontStyle=0;aspect=fixed;shape=mxgraph.aws4.resourceIcon;resIcon=mxgraph.aws4.api_gateway;" vertex="1" parent="1">
          <mxGeometry x="-1471" y="640" width="80" height="80" as="geometry" />
        </mxCell>
        <mxCell id="wswhTcmAmgkBsK6IhGsY-8" value="" style="sketch=0;aspect=fixed;pointerEvents=1;shadow=0;dashed=0;html=1;strokeColor=none;labelPosition=center;verticalLabelPosition=bottom;verticalAlign=top;align=center;fillColor=#00188D;shape=mxgraph.mscae.enterprise.filter" vertex="1" parent="1">
          <mxGeometry x="-784.5" y="492" width="50" height="45" as="geometry" />
        </mxCell>
        <mxCell id="wswhTcmAmgkBsK6IhGsY-14" value="" style="endArrow=none;html=1;rounded=0;exitX=0.5;exitY=0;exitDx=0;exitDy=0;exitPerimeter=0;strokeWidth=4;" edge="1" parent="1" source="wswhTcmAmgkBsK6IhGsY-8">
          <mxGeometry width="50" height="50" relative="1" as="geometry">
            <mxPoint x="-790" y="520" as="sourcePoint" />
            <mxPoint x="-760" y="440" as="targetPoint" />
          </mxGeometry>
        </mxCell>
        <mxCell id="wswhTcmAmgkBsK6IhGsY-15" value="&lt;font style=&quot;font-size: 24px;&quot;&gt;&lt;b&gt;Jamii-&lt;/b&gt;&lt;/font&gt;&lt;font style=&quot;font-size: 24px;&quot;&gt;&lt;b&gt;X-Change&lt;/b&gt;&lt;/font&gt;" style="text;html=1;align=center;verticalAlign=middle;resizable=0;points=[];autosize=1;strokeColor=none;fillColor=none;color=ffffff" vertex="1" parent="1">
          <mxGeometry x="-1525" y="716" width="200" height="40" as="geometry" />
        </mxCell>
        <mxCell id="wswhTcmAmgkBsK6IhGsY-17" value="" style="endArrow=classic;startArrow=classic;html=1;rounded=0;shadow=0;strokeColor=default;strokeWidth=2;align=center;verticalAlign=middle;fontFamily=Helvetica;fontSize=11;fontColor=default;labelBackgroundColor=default;fillColor=#515151;exitX=0.5;exitY=0;exitDx=0;exitDy=0;exitPerimeter=0;" edge="1" parent="1">
          <mxGeometry width="50" height="50" relative="1" as="geometry">
            <mxPoint x="-1436" y="780" as="sourcePoint" />
            <mxPoint x="-1436" y="743" as="targetPoint" />
            <Array as="points">
              <mxPoint x="-1436.5" y="743" />
            </Array>
          </mxGeometry>
        </mxCell>
        <mxCell id="wswhTcmAmgkBsK6IhGsY-18" value="" style="endArrow=classic;html=1;rounded=0;exitX=0.5;exitY=1;exitDx=0;exitDy=0;exitPerimeter=0;entryX=0.455;entryY=0.006;entryDx=0;entryDy=0;entryPerimeter=0;strokeWidth=4;" edge="1" parent="1" source="wswhTcmAmgkBsK6IhGsY-8" target="bv6qjs0hTHORihQvAECl-27">
          <mxGeometry width="50" height="50" relative="1" as="geometry">
            <mxPoint x="-1000" y="490" as="sourcePoint" />
            <mxPoint x="-950" y="440" as="targetPoint" />
          </mxGeometry>
        </mxCell>
        <mxCell id="wswhTcmAmgkBsK6IhGsY-19" value="&lt;font style=&quot;font-size: 14px;&quot;&gt;&lt;b&gt;Archives&lt;/b&gt;&lt;/font&gt;" style="text;html=1;align=center;verticalAlign=middle;whiteSpace=wrap;rounded=0;" vertex="1" parent="1">
          <mxGeometry x="-764" y="520" width="84.5" height="30" as="geometry" />
        </mxCell>
      </root>
    </mxGraphModel>
  </diagram>
</mxfile>
